<?xml version="1.0" encoding="UTF-8" standalone="no"?>
<svg
   xmlns:osb="http://www.openswatchbook.org/uri/2009/osb"
   xmlns:dc="http://purl.org/dc/elements/1.1/"
   xmlns:cc="http://creativecommons.org/ns#"
   xmlns:rdf="http://www.w3.org/1999/02/22-rdf-syntax-ns#"
   xmlns:svg="http://www.w3.org/2000/svg"
   xmlns="http://www.w3.org/2000/svg"
   xmlns:xlink="http://www.w3.org/1999/xlink"
   xmlns:sodipodi="http://sodipodi.sourceforge.net/DTD/sodipodi-0.dtd"
   xmlns:inkscape="http://www.inkscape.org/namespaces/inkscape"
   version="1.1"
   x="0px"
   y="0px"
   viewBox="0 0 498.49798 141.42101"
   xml:space="preserve"
   id="svg10"
   sodipodi:docname="ennvas-icono-titulo.svg"
   inkscape:version="0.92.4 (5da689c313, 2019-01-14)"
   inkscape:export-filename="C:\Users\jufra\Desktop\logotipo ennvas.png"
   inkscape:export-xdpi="72.00943"
   inkscape:export-ydpi="72.00943"
   width="498.49799"
   height="141.42101"><metadata
     id="metadata16"><rdf:RDF><cc:Work
         rdf:about=""><dc:format>image/svg+xml</dc:format><dc:type
           rdf:resource="http://purl.org/dc/dcmitype/StillImage" /><dc:title /></cc:Work></rdf:RDF></metadata><defs
     id="defs14"><linearGradient
   inkscape:collect="always"
   id="linearGradient6125"><stop
     style="stop-color:#f4028e;stop-opacity:1"
     offset="0"
     id="stop6121" /><stop
     style="stop-color:#9419ff;stop-opacity:1"
     offset="1"
     id="stop6123" /></linearGradient><linearGradient
   id="linearGradient4667"
   osb:paint="gradient"><stop
     style="stop-color:#ff0a08;stop-opacity:1;"
     offset="0"
     id="stop4663" /><stop
     style="stop-color:#ff0a08;stop-opacity:0;"
     offset="1"
     id="stop4665" /></linearGradient><linearGradient
   inkscape:collect="always"
   xlink:href="#linearGradient6125"
   id="linearGradient6129"
   x1="97.676384"
   y1="621.73547"
   x2="292.57529"
   y2="424.24457"
   gradientUnits="userSpaceOnUse"
   gradientTransform="matrix(0.05215418,0,0,0.05215418,11.37039,-2.4839261)" /><linearGradient
   inkscape:collect="always"
   xlink:href="#linearGradient6125"
   id="linearGradient6129-4"
   x1="97.676384"
   y1="621.73547"
   x2="292.57529"
   y2="424.24457"
   gradientUnits="userSpaceOnUse"
   gradientTransform="matrix(0.05215418,0,0,0.05215418,1.303123,36.675452)" />
</defs><sodipodi:namedview
     pagecolor="#ffffff"
     bordercolor="#666666"
     borderopacity="1"
     objecttolerance="10"
     gridtolerance="10"
     guidetolerance="10"
     inkscape:pageopacity="1"
     inkscape:pageshadow="2"
     inkscape:window-width="2560"
     inkscape:window-height="1057"
     id="namedview12"
     showgrid="false"
     inkscape:zoom="2.085965"
     inkscape:cx="156.2436"
     inkscape:cy="130.92698"
     inkscape:window-x="-8"
     inkscape:window-y="-8"
     inkscape:window-maximized="1"
     inkscape:current-layer="g828"
     units="px" /><g
     id="g4"
     transform="translate(-0.05,69.370992)"><g
   id="g828"
   transform="matrix(14.650755,0,0,14.650755,-73.063526,-958.76656)"
   style="stroke-width:0.06825587"><path
     sodipodi:nodetypes="sccsccsccsccsccsccsccsccs"
     id="path4637-6"
     d="m 9.816822,60.706469 c -1.310782,0 -1.475122,0.0056 -1.98991,0.02904 C 7.313179,60.758962 6.96235,60.840538 6.655336,60.959857 6.337957,61.0832 6.0688,61.248231 5.800487,61.516545 5.532172,61.784858 5.367142,62.054015 5.2438,62.371394 c -0.119319,0.307014 -0.200895,0.657844 -0.224345,1.171577 -0.02349,0.514768 -0.02903,0.679128 -0.02903,1.98991 0,1.310781 0.0055,1.475141 0.02903,1.98991 0.02345,0.513732 0.105026,0.864562 0.224345,1.171576 0.123342,0.31736 0.288372,0.586535 0.556687,0.854849 0.268313,0.268314 0.53747,0.433345 0.854849,0.556687 0.307014,0.119319 0.657843,0.200894 1.171576,0.224345 0.514788,0.02349 0.679128,0.02903 1.98991,0.02903 1.310782,0 1.475142,-0.0055 1.98991,-0.02903 0.513733,-0.02345 0.864563,-0.105026 1.171577,-0.224345 0.317379,-0.123342 0.586535,-0.288373 0.854849,-0.556687 0.268314,-0.268314 0.433344,-0.53747 0.556687,-0.854849 0.119318,-0.307014 0.200895,-0.657844 0.224344,-1.171576 0.02349,-0.514769 0.02904,-0.679129 0.02904,-1.98991 0,-1.310782 -0.0056,-1.475142 -0.02904,-1.98991 -0.02345,-0.513733 -0.105026,-0.864563 -0.224344,-1.171577 -0.123343,-0.317379 -0.288373,-0.586535 -0.556687,-0.854849 -0.268314,-0.268314 -0.53747,-0.433345 -0.854849,-0.556687 -0.307014,-0.119319 -0.657844,-0.200895 -1.171577,-0.224345 -0.514768,-0.02349 -0.679128,-0.02904 -1.98991,-0.02904 z"
     inkscape:connector-curvature="0"
     style="fill:url(#linearGradient6129-4);fill-opacity:1;stroke-width:0.06825587" /><path
     inkscape:connector-curvature="0"
     id="path2-0"
     d="m 9.810795,62.245047 c -0.255239,0 -0.461995,0.206756 -0.461995,0.461995 0,0.218777 0.145876,0.388688 0.340345,0.449459 v 0.875236 h 0.243301 v -0.875236 c 0.194468,-0.04862 0.340344,-0.230682 0.340344,-0.449459 0,-0.255239 -0.206755,-0.461995 -0.461995,-0.461995 z m 0,0.243302 c 0.121543,0 0.218693,0.09715 0.218693,0.218693 0,0.121543 -0.09715,0.230765 -0.218693,0.230765 -0.121543,0 -0.218693,-0.09707 -0.218693,-0.230765 0,-0.121543 0.09715,-0.218693 0.218693,-0.218693 z m -2.528204,1.033105 c -0.255239,0 -0.461995,0.206291 -0.461995,0.46153 0,0.25524 0.206756,0.461995 0.461995,0.461995 0.109389,0 0.194439,-0.03627 0.279519,-0.09704 l 0.911453,0.522356 0.10958,-0.194084 -0.875237,-0.510748 c 0.02431,-0.06077 0.03668,-0.121706 0.03668,-0.182477 0,-0.255239 -0.206755,-0.46153 -0.461995,-0.46153 z m 5.06848,0.01207 c -0.255239,0 -0.461995,0.206756 -0.461995,0.461996 0,0.06077 0.01237,0.12124 0.03668,0.182011 l -0.88731,0.498677 0.12165,0.20662 0.911454,-0.52282 c 0.07293,0.06077 0.17013,0.09704 0.279519,0.09704 0.255239,0 0.461995,-0.206291 0.461995,-0.46153 0,-0.25524 -0.206756,-0.461996 -0.461995,-0.461996 z M 7.258447,63.76429 c 0.121543,0 0.218693,0.09715 0.218693,0.218693 0,0.121543 -0.09715,0.219158 -0.218693,0.219158 -0.121543,0 -0.218693,-0.09761 -0.218693,-0.219158 0,-0.121542 0.09715,-0.218693 0.218693,-0.218693 z m 5.092624,0 c 0.121543,0 0.218694,0.09715 0.218694,0.218693 0,0.121543 -0.09715,0.219158 -0.218694,0.219158 -0.121542,0 -0.218693,-0.09761 -0.218693,-0.219158 0,-0.121542 0.09715,-0.218693 0.218693,-0.218693 z m -2.545383,0.851093 c -0.145851,0 -0.255375,0.133585 -0.255375,0.29159 0,0.08508 0.03627,0.170076 0.09704,0.218693 -0.182313,-0.04862 -0.327779,-0.194329 -0.400704,-0.364488 -0.02431,-0.06077 -0.09756,-0.09721 -0.158332,-0.07289 -0.06077,0.02431 -0.09721,0.0971 -0.07289,0.157868 0.06077,0.170159 0.182421,0.316007 0.328272,0.413242 -0.255239,0.109387 -0.462104,0.316252 -0.583646,0.583645 -0.02431,0.06077 5.2e-5,0.133559 0.06082,0.157868 0.06077,0.02431 0.134022,-5.2e-5 0.158331,-0.06082 0.08508,-0.182314 0.218474,-0.328081 0.388634,-0.425314 -0.07293,0.09723 -0.109115,0.21872 -0.109115,0.352416 0,0.328165 0.243108,0.583182 0.546965,0.583182 0.303857,0 0.546965,-0.267172 0.546965,-0.583182 0,-0.133696 -0.03665,-0.255183 -0.109579,-0.352416 0.182314,0.09723 0.328244,0.254908 0.40117,0.46153 0.02431,0.04862 0.06049,0.07336 0.109114,0.07336 0.01216,0 0.02444,-4.17e-4 0.04875,-0.01254 0.06077,-0.02431 0.0972,-0.0971 0.07289,-0.157868 -0.109389,-0.267393 -0.32786,-0.49832 -0.595254,-0.619862 0.145851,-0.08508 0.254882,-0.218556 0.327809,-0.376561 0.02431,-0.06077 -5.3e-5,-0.134023 -0.06083,-0.158332 -0.06077,-0.02431 -0.133559,5.2e-5 -0.157867,0.06082 -0.08508,0.182314 -0.243001,0.315953 -0.425314,0.352416 0.06077,-0.04862 0.09704,-0.133531 0.09704,-0.230765 0,-0.158005 -0.109059,-0.291591 -0.25491,-0.291591 z m -1.332125,1.543388 -0.911453,0.52282 c -0.07293,-0.06077 -0.17013,-0.09751 -0.279519,-0.09751 -0.255239,0 -0.461995,0.206756 -0.461995,0.461995 0,0.25524 0.206756,0.461996 0.461995,0.461996 0.25524,0 0.461995,-0.206756 0.461995,-0.461996 0,-0.06077 -0.01237,-0.121322 -0.03668,-0.16994 l 0.875237,-0.510747 z m 2.686537,0.01207 -0.121651,0.194549 0.874772,0.510747 c -0.02431,0.04862 -0.03622,0.109169 -0.03622,0.16994 0,0.25524 0.206756,0.461996 0.461995,0.461996 0.255239,0 0.46153,-0.206756 0.46153,-0.461996 0,-0.255239 -0.194219,-0.449922 -0.449458,-0.449922 -0.109389,0 -0.206593,0.03674 -0.279518,0.09751 z m -3.889581,0.680688 c 0.06077,0 0.121405,0.02436 0.157868,0.06083 0.01216,0.01216 0.01246,0.02414 0.02461,0.02414 0.02431,0.03646 0.03622,0.08511 0.03622,0.133723 0,0.109389 -0.09715,0.219158 -0.218693,0.219158 -0.121543,0 -0.218694,-0.09761 -0.218694,-0.219158 0,-0.121543 0.09715,-0.218693 0.218694,-0.218693 z m 5.080552,0 c 0.121543,0 0.218694,0.09715 0.218694,0.218692 0,0.121544 -0.09715,0.219159 -0.218694,0.219159 -0.121542,0 -0.218693,-0.09761 -0.218693,-0.219159 0,-0.121542 0.09715,-0.218692 0.218693,-0.218692 z m -2.661926,0.157868 v 0.899845 C 9.494676,67.957862 9.3488,68.139924 9.3488,68.358701 c 0,0.255239 0.206756,0.461995 0.461995,0.461995 0.25524,0 0.461995,-0.206756 0.461995,-0.461995 0,-0.218777 -0.145876,-0.400841 -0.340344,-0.449459 v -0.899845 z m 0.12165,1.13061 c 0.121543,0 0.218693,0.09715 0.218693,0.218694 0,0.121543 -0.09715,0.218693 -0.218693,0.218693 -0.121543,0 -0.218693,-0.09715 -0.218693,-0.218693 0,-0.121543 0.09715,-0.218694 0.218693,-0.218694 z"
     style="fill:#ffffff;fill-opacity:1;stroke:none;stroke-width:0.00682559;stroke-miterlimit:4;stroke-dasharray:none;stroke-opacity:1" /><g
     aria-label="Ennvas"
     style="font-style:normal;font-variant:normal;font-weight:bold;font-stretch:normal;font-size:6.61967659px;line-height:1.25;font-family:Kollektif;-inkscape-font-specification:'Kollektif Bold';letter-spacing:0px;word-spacing:0px;fill:#000000;fill-opacity:1;stroke:none;stroke-width:0.06825587"
     id="text6134-00"><path
       d="m 21.397056,67.516975 v -0.741403 h -2.105057 v -1.2445 h 1.906467 v -0.721544 h -1.906467 v -1.2445 h 2.105057 v -0.741403 h -2.899418 v 4.69335 z"
       style="font-style:normal;font-variant:normal;font-weight:bold;font-stretch:normal;font-family:'Circular Std Medium';-inkscape-font-specification:'Circular Std Medium,  Bold';stroke-width:0.06825587"
       id="path830" /><path
       d="m 22.987537,65.656846 c 0,-0.423659 0.231688,-0.761263 0.668587,-0.761263 0.483236,0 0.661968,0.317745 0.661968,0.714926 v 1.906466 h 0.767882 v -2.03886 c 0,-0.708305 -0.377321,-1.277598 -1.165063,-1.277598 -0.357463,0 -0.741404,0.152253 -0.953233,0.522955 v -0.430279 h -0.748024 v 3.223782 h 0.767883 z"
       style="font-style:normal;font-variant:normal;font-weight:bold;font-stretch:normal;font-family:'Circular Std Medium';-inkscape-font-specification:'Circular Std Medium,  Bold';stroke-width:0.06825587"
       id="path832" /><path
       d="m 26.788679,65.656846 c 0,-0.423659 0.231689,-0.761263 0.668587,-0.761263 0.483237,0 0.661968,0.317745 0.661968,0.714926 v 1.906466 h 0.767882 v -2.03886 c 0,-0.708305 -0.377321,-1.277598 -1.165063,-1.277598 -0.357462,0 -0.741404,0.152253 -0.953233,0.522955 v -0.430279 h -0.748024 v 3.223782 h 0.767883 z"
       style="font-style:normal;font-variant:normal;font-weight:bold;font-stretch:normal;font-family:'Circular Std Medium';-inkscape-font-specification:'Circular Std Medium,  Bold';stroke-width:0.06825587"
       id="path834" /><path
       d="M 32.69581,64.293193 H 31.888209 L 31.05413,66.59684 30.200192,64.293193 h -0.847319 l 1.310696,3.223782 h 0.767883 z"
       style="font-style:normal;font-variant:normal;font-weight:bold;font-stretch:normal;font-family:'Circular Std Medium';-inkscape-font-specification:'Circular Std Medium,  Bold';stroke-width:0.06825587"
       id="path836" /><path
       d="m 33.03662,66.643178 c 0,0.509715 0.417039,0.973093 1.092246,0.973093 0.522955,0 0.840699,-0.264788 0.992952,-0.509716 0,0.258168 0.02648,0.390561 0.0331,0.41042 h 0.714925 c -0.0066,-0.0331 -0.03972,-0.225069 -0.03972,-0.516334 v -1.601962 c 0,-0.642109 -0.377321,-1.204781 -1.370273,-1.204781 -0.794361,0 -1.297456,0.496475 -1.357034,1.052528 l 0.701686,0.158873 c 0.0331,-0.324365 0.258168,-0.582532 0.661968,-0.582532 0.423659,0 0.60901,0.218449 0.60901,0.489856 0,0.112535 -0.05296,0.20521 -0.238308,0.231689 l -0.82746,0.125774 c -0.549433,0.07944 -0.973092,0.39718 -0.973092,0.973092 z m 1.237879,0.370702 c -0.304505,0 -0.469997,-0.19859 -0.469997,-0.41704 0,-0.264787 0.191971,-0.39718 0.430279,-0.436898 l 0.840699,-0.125774 v 0.145633 c 0,0.628869 -0.370702,0.834079 -0.800981,0.834079 z"
       style="font-style:normal;font-variant:normal;font-weight:bold;font-stretch:normal;font-family:'Circular Std Medium';-inkscape-font-specification:'Circular Std Medium,  Bold';stroke-width:0.06825587"
       id="path838" /><path
       d="m 36.467268,66.643178 c 0.03972,0.364082 0.39718,0.973093 1.330554,0.973093 0.82084,0 1.218021,-0.542814 1.218021,-1.03267 0,-0.476617 -0.317744,-0.847319 -0.926755,-0.979712 l -0.489856,-0.09929 c -0.19859,-0.03972 -0.324364,-0.165492 -0.324364,-0.337604 0,-0.19859 0.191971,-0.370702 0.463377,-0.370702 0.430279,0 0.569293,0.297886 0.595771,0.483237 l 0.648729,-0.185351 c -0.05296,-0.317745 -0.344224,-0.900276 -1.2445,-0.900276 -0.668587,0 -1.184922,0.476616 -1.184922,1.039289 0,0.443518 0.297886,0.81422 0.867178,0.939994 l 0.476617,0.105915 c 0.258167,0.05296 0.377321,0.185351 0.377321,0.357462 0,0.198591 -0.165492,0.370702 -0.483236,0.370702 -0.41042,0 -0.628869,-0.258167 -0.655348,-0.549433 z"
       style="font-style:normal;font-variant:normal;font-weight:bold;font-stretch:normal;font-family:'Circular Std Medium';-inkscape-font-specification:'Circular Std Medium,  Bold';stroke-width:0.06825587"
       id="path840" /></g></g>
</g></svg>